<mxfile host="app.diagrams.net" agent="Mozilla/5.0 (Windows NT 10.0; Win64; x64) AppleWebKit/537.36 (KHTML, like Gecko) Chrome/134.0.0.0 Safari/537.36 Edg/134.0.0.0" version="26.1.1">
  <diagram name="第 1 页" id="04hMknLMc1JlGAUFIqUX">
    <mxGraphModel dx="1413" dy="784" grid="1" gridSize="10" guides="1" tooltips="1" connect="1" arrows="1" fold="1" page="1" pageScale="1" pageWidth="827" pageHeight="1169" math="0" shadow="0">
      <root>
        <mxCell id="0" />
        <mxCell id="1" parent="0" />
        <mxCell id="GYgUfo7SqgVN0UKton_i-1" value="Microcontrollor Iniltialization" style="rounded=0;whiteSpace=wrap;html=1;" parent="1" vertex="1">
          <mxGeometry x="340" y="30" width="120" height="60" as="geometry" />
        </mxCell>
        <mxCell id="GYgUfo7SqgVN0UKton_i-5" value="" style="edgeStyle=orthogonalEdgeStyle;rounded=0;orthogonalLoop=1;jettySize=auto;html=1;entryX=0.5;entryY=0;entryDx=0;entryDy=0;entryPerimeter=0;" parent="1" source="GYgUfo7SqgVN0UKton_i-2" edge="1" target="GYgUfo7SqgVN0UKton_i-13">
          <mxGeometry relative="1" as="geometry">
            <mxPoint x="400" y="220" as="targetPoint" />
          </mxGeometry>
        </mxCell>
        <mxCell id="GYgUfo7SqgVN0UKton_i-6" value="on" style="edgeLabel;html=1;align=center;verticalAlign=middle;resizable=0;points=[];" parent="GYgUfo7SqgVN0UKton_i-5" vertex="1" connectable="0">
          <mxGeometry x="0.256" relative="1" as="geometry">
            <mxPoint y="-5" as="offset" />
          </mxGeometry>
        </mxCell>
        <mxCell id="GYgUfo7SqgVN0UKton_i-8" value="" style="edgeStyle=orthogonalEdgeStyle;rounded=0;orthogonalLoop=1;jettySize=auto;html=1;" parent="1" source="GYgUfo7SqgVN0UKton_i-2" edge="1">
          <mxGeometry relative="1" as="geometry">
            <mxPoint x="260" y="155" as="targetPoint" />
          </mxGeometry>
        </mxCell>
        <mxCell id="GYgUfo7SqgVN0UKton_i-10" value="off" style="edgeLabel;html=1;align=center;verticalAlign=middle;resizable=0;points=[];" parent="GYgUfo7SqgVN0UKton_i-8" vertex="1" connectable="0">
          <mxGeometry x="-0.1028" y="-2" relative="1" as="geometry">
            <mxPoint x="1" as="offset" />
          </mxGeometry>
        </mxCell>
        <mxCell id="GYgUfo7SqgVN0UKton_i-2" value="Slide switch button" style="strokeWidth=2;html=1;shape=mxgraph.flowchart.decision;whiteSpace=wrap;" parent="1" vertex="1">
          <mxGeometry x="350" y="120" width="100" height="70" as="geometry" />
        </mxCell>
        <mxCell id="GYgUfo7SqgVN0UKton_i-3" style="edgeStyle=orthogonalEdgeStyle;rounded=0;orthogonalLoop=1;jettySize=auto;html=1;exitX=0.5;exitY=1;exitDx=0;exitDy=0;entryX=0.5;entryY=0;entryDx=0;entryDy=0;entryPerimeter=0;" parent="1" source="GYgUfo7SqgVN0UKton_i-1" target="GYgUfo7SqgVN0UKton_i-2" edge="1">
          <mxGeometry relative="1" as="geometry" />
        </mxCell>
        <mxCell id="GYgUfo7SqgVN0UKton_i-9" value="Sleep Mode" style="rounded=0;whiteSpace=wrap;html=1;" parent="1" vertex="1">
          <mxGeometry x="140" y="125" width="120" height="60" as="geometry" />
        </mxCell>
        <mxCell id="GYgUfo7SqgVN0UKton_i-16" value="" style="edgeStyle=orthogonalEdgeStyle;rounded=0;orthogonalLoop=1;jettySize=auto;html=1;entryX=0.5;entryY=0;entryDx=0;entryDy=0;entryPerimeter=0;" parent="1" source="GYgUfo7SqgVN0UKton_i-13" target="GYgUfo7SqgVN0UKton_i-18" edge="1">
          <mxGeometry relative="1" as="geometry">
            <mxPoint x="400" y="385" as="targetPoint" />
          </mxGeometry>
        </mxCell>
        <mxCell id="GYgUfo7SqgVN0UKton_i-17" value="hold" style="edgeLabel;html=1;align=center;verticalAlign=middle;resizable=0;points=[];" parent="GYgUfo7SqgVN0UKton_i-16" vertex="1" connectable="0">
          <mxGeometry x="-0.4824" relative="1" as="geometry">
            <mxPoint as="offset" />
          </mxGeometry>
        </mxCell>
        <mxCell id="GYgUfo7SqgVN0UKton_i-23" style="edgeStyle=orthogonalEdgeStyle;rounded=0;orthogonalLoop=1;jettySize=auto;html=1;exitX=0;exitY=0.5;exitDx=0;exitDy=0;exitPerimeter=0;entryX=0.75;entryY=1;entryDx=0;entryDy=0;" parent="1" source="GYgUfo7SqgVN0UKton_i-13" target="GYgUfo7SqgVN0UKton_i-9" edge="1">
          <mxGeometry relative="1" as="geometry" />
        </mxCell>
        <mxCell id="GYgUfo7SqgVN0UKton_i-25" value="no stress detected" style="edgeLabel;html=1;align=center;verticalAlign=middle;resizable=0;points=[];" parent="GYgUfo7SqgVN0UKton_i-23" vertex="1" connectable="0">
          <mxGeometry x="-0.504" y="-1" relative="1" as="geometry">
            <mxPoint as="offset" />
          </mxGeometry>
        </mxCell>
        <mxCell id="GYgUfo7SqgVN0UKton_i-13" value="FSR" style="strokeWidth=2;html=1;shape=mxgraph.flowchart.decision;whiteSpace=wrap;" parent="1" vertex="1">
          <mxGeometry x="350" y="230" width="100" height="70" as="geometry" />
        </mxCell>
        <mxCell id="GYgUfo7SqgVN0UKton_i-21" value="" style="edgeStyle=orthogonalEdgeStyle;rounded=0;orthogonalLoop=1;jettySize=auto;html=1;" parent="1" source="GYgUfo7SqgVN0UKton_i-18" target="GYgUfo7SqgVN0UKton_i-20" edge="1">
          <mxGeometry relative="1" as="geometry" />
        </mxCell>
        <mxCell id="GYgUfo7SqgVN0UKton_i-22" value="gesture detected" style="edgeLabel;html=1;align=center;verticalAlign=middle;resizable=0;points=[];" parent="GYgUfo7SqgVN0UKton_i-21" vertex="1" connectable="0">
          <mxGeometry x="-0.2235" y="-2" relative="1" as="geometry">
            <mxPoint as="offset" />
          </mxGeometry>
        </mxCell>
        <mxCell id="GYgUfo7SqgVN0UKton_i-24" style="edgeStyle=orthogonalEdgeStyle;rounded=0;orthogonalLoop=1;jettySize=auto;html=1;exitX=0;exitY=0.5;exitDx=0;exitDy=0;exitPerimeter=0;entryX=0.5;entryY=1;entryDx=0;entryDy=0;" parent="1" source="GYgUfo7SqgVN0UKton_i-18" target="GYgUfo7SqgVN0UKton_i-9" edge="1">
          <mxGeometry relative="1" as="geometry" />
        </mxCell>
        <mxCell id="GYgUfo7SqgVN0UKton_i-26" value="no gesture detected" style="edgeLabel;html=1;align=center;verticalAlign=middle;resizable=0;points=[];" parent="GYgUfo7SqgVN0UKton_i-24" vertex="1" connectable="0">
          <mxGeometry x="-0.5847" relative="1" as="geometry">
            <mxPoint as="offset" />
          </mxGeometry>
        </mxCell>
        <mxCell id="GYgUfo7SqgVN0UKton_i-18" value="IMU" style="strokeWidth=2;html=1;shape=mxgraph.flowchart.decision;whiteSpace=wrap;" parent="1" vertex="1">
          <mxGeometry x="350" y="340" width="100" height="70" as="geometry" />
        </mxCell>
        <mxCell id="6ajZmVq5-ZLFAeQpOAEj-2" style="edgeStyle=orthogonalEdgeStyle;rounded=0;orthogonalLoop=1;jettySize=auto;html=1;exitX=1;exitY=0.5;exitDx=0;exitDy=0;entryX=0;entryY=0.5;entryDx=0;entryDy=0;" edge="1" parent="1" source="GYgUfo7SqgVN0UKton_i-20" target="6ajZmVq5-ZLFAeQpOAEj-1">
          <mxGeometry relative="1" as="geometry" />
        </mxCell>
        <mxCell id="6ajZmVq5-ZLFAeQpOAEj-3" value="Wifi: board wand&amp;nbsp;to board acturator&amp;nbsp;&amp;nbsp;" style="edgeLabel;html=1;align=center;verticalAlign=middle;resizable=0;points=[];" vertex="1" connectable="0" parent="6ajZmVq5-ZLFAeQpOAEj-2">
          <mxGeometry x="-0.0667" y="-3" relative="1" as="geometry">
            <mxPoint as="offset" />
          </mxGeometry>
        </mxCell>
        <mxCell id="GYgUfo7SqgVN0UKton_i-20" value="LED Strip light once" style="whiteSpace=wrap;html=1;strokeWidth=2;" parent="1" vertex="1">
          <mxGeometry x="340" y="450" width="120" height="60" as="geometry" />
        </mxCell>
        <mxCell id="GYgUfo7SqgVN0UKton_i-55" style="edgeStyle=orthogonalEdgeStyle;rounded=0;orthogonalLoop=1;jettySize=auto;html=1;exitX=0.5;exitY=1;exitDx=0;exitDy=0;entryX=0.5;entryY=0;entryDx=0;entryDy=0;" parent="1" source="GYgUfo7SqgVN0UKton_i-27" target="GYgUfo7SqgVN0UKton_i-52" edge="1">
          <mxGeometry relative="1" as="geometry" />
        </mxCell>
        <mxCell id="GYgUfo7SqgVN0UKton_i-27" value="LCD image 1" style="whiteSpace=wrap;html=1;strokeWidth=2;" parent="1" vertex="1">
          <mxGeometry x="115" y="590" width="120" height="60" as="geometry" />
        </mxCell>
        <mxCell id="GYgUfo7SqgVN0UKton_i-66" style="edgeStyle=orthogonalEdgeStyle;rounded=0;orthogonalLoop=1;jettySize=auto;html=1;exitX=0.5;exitY=1;exitDx=0;exitDy=0;entryX=0.5;entryY=0;entryDx=0;entryDy=0;" parent="1" source="GYgUfo7SqgVN0UKton_i-30" target="GYgUfo7SqgVN0UKton_i-62" edge="1">
          <mxGeometry relative="1" as="geometry" />
        </mxCell>
        <mxCell id="GYgUfo7SqgVN0UKton_i-79" value="Wifi: board acturator to board wand&amp;nbsp;&lt;div&gt;higher speed vibration&lt;/div&gt;" style="edgeLabel;html=1;align=center;verticalAlign=middle;resizable=0;points=[];" parent="GYgUfo7SqgVN0UKton_i-66" vertex="1" connectable="0">
          <mxGeometry x="-0.0476" y="1" relative="1" as="geometry">
            <mxPoint x="-2" y="-4" as="offset" />
          </mxGeometry>
        </mxCell>
        <mxCell id="GYgUfo7SqgVN0UKton_i-30" value="Motor speed higher&lt;div&gt;LCD volumn up image&lt;/div&gt;" style="whiteSpace=wrap;html=1;strokeWidth=2;" parent="1" vertex="1">
          <mxGeometry x="400" y="720" width="135" height="60" as="geometry" />
        </mxCell>
        <mxCell id="GYgUfo7SqgVN0UKton_i-67" style="edgeStyle=orthogonalEdgeStyle;rounded=0;orthogonalLoop=1;jettySize=auto;html=1;exitX=0.5;exitY=1;exitDx=0;exitDy=0;entryX=0.5;entryY=0;entryDx=0;entryDy=0;" parent="1" source="GYgUfo7SqgVN0UKton_i-45" target="GYgUfo7SqgVN0UKton_i-65" edge="1">
          <mxGeometry relative="1" as="geometry" />
        </mxCell>
        <mxCell id="GYgUfo7SqgVN0UKton_i-80" value="Wifi: board acturator to board wand&amp;nbsp;&lt;br&gt;&lt;div&gt;lower speed vibration&lt;/div&gt;" style="edgeLabel;html=1;align=center;verticalAlign=middle;resizable=0;points=[];" parent="GYgUfo7SqgVN0UKton_i-67" vertex="1" connectable="0">
          <mxGeometry x="-0.0794" y="-5" relative="1" as="geometry">
            <mxPoint x="25" as="offset" />
          </mxGeometry>
        </mxCell>
        <mxCell id="GYgUfo7SqgVN0UKton_i-45" value="Motor speed lower&lt;div&gt;LCD volume down image&lt;/div&gt;" style="whiteSpace=wrap;html=1;strokeWidth=2;" parent="1" vertex="1">
          <mxGeometry x="565" y="720" width="145" height="60" as="geometry" />
        </mxCell>
        <mxCell id="GYgUfo7SqgVN0UKton_i-59" style="edgeStyle=orthogonalEdgeStyle;rounded=0;orthogonalLoop=1;jettySize=auto;html=1;exitX=0.5;exitY=1;exitDx=0;exitDy=0;entryX=0.5;entryY=0;entryDx=0;entryDy=0;" parent="1" source="GYgUfo7SqgVN0UKton_i-46" target="GYgUfo7SqgVN0UKton_i-52" edge="1">
          <mxGeometry relative="1" as="geometry" />
        </mxCell>
        <mxCell id="GYgUfo7SqgVN0UKton_i-78" value="Wifi: board acturator to board wand&amp;nbsp;&lt;div&gt;lcd vibration&lt;/div&gt;" style="edgeLabel;html=1;align=center;verticalAlign=middle;resizable=0;points=[];" parent="GYgUfo7SqgVN0UKton_i-59" vertex="1" connectable="0">
          <mxGeometry x="0.3991" y="-5" relative="1" as="geometry">
            <mxPoint x="5" y="29" as="offset" />
          </mxGeometry>
        </mxCell>
        <mxCell id="GYgUfo7SqgVN0UKton_i-46" value="LCD image 2" style="whiteSpace=wrap;html=1;strokeWidth=2;" parent="1" vertex="1">
          <mxGeometry x="265" y="590" width="120" height="60" as="geometry" />
        </mxCell>
        <mxCell id="GYgUfo7SqgVN0UKton_i-47" value="" style="endArrow=classic;html=1;rounded=0;exitX=0.5;exitY=1;exitDx=0;exitDy=0;" parent="1" source="GYgUfo7SqgVN0UKton_i-20" edge="1">
          <mxGeometry width="50" height="50" relative="1" as="geometry">
            <mxPoint x="440" y="480" as="sourcePoint" />
            <mxPoint x="400" y="540" as="targetPoint" />
          </mxGeometry>
        </mxCell>
        <mxCell id="6ajZmVq5-ZLFAeQpOAEj-4" value="Wifi: board wand&amp;nbsp;to board acturator&amp;nbsp;&amp;nbsp;" style="edgeLabel;html=1;align=center;verticalAlign=middle;resizable=0;points=[];" vertex="1" connectable="0" parent="GYgUfo7SqgVN0UKton_i-47">
          <mxGeometry x="-0.3778" y="2" relative="1" as="geometry">
            <mxPoint as="offset" />
          </mxGeometry>
        </mxCell>
        <mxCell id="GYgUfo7SqgVN0UKton_i-48" value="" style="endArrow=classic;html=1;rounded=0;entryX=0.5;entryY=0;entryDx=0;entryDy=0;" parent="1" target="GYgUfo7SqgVN0UKton_i-27" edge="1">
          <mxGeometry width="50" height="50" relative="1" as="geometry">
            <mxPoint x="400" y="540" as="sourcePoint" />
            <mxPoint x="490" y="430" as="targetPoint" />
          </mxGeometry>
        </mxCell>
        <mxCell id="GYgUfo7SqgVN0UKton_i-74" value="gesture 1" style="edgeLabel;html=1;align=center;verticalAlign=middle;resizable=0;points=[];" parent="GYgUfo7SqgVN0UKton_i-48" vertex="1" connectable="0">
          <mxGeometry x="-0.2078" y="-3" relative="1" as="geometry">
            <mxPoint as="offset" />
          </mxGeometry>
        </mxCell>
        <mxCell id="GYgUfo7SqgVN0UKton_i-49" value="" style="endArrow=classic;html=1;rounded=0;entryX=0.5;entryY=0;entryDx=0;entryDy=0;" parent="1" target="GYgUfo7SqgVN0UKton_i-46" edge="1">
          <mxGeometry width="50" height="50" relative="1" as="geometry">
            <mxPoint x="400" y="540" as="sourcePoint" />
            <mxPoint x="490" y="430" as="targetPoint" />
          </mxGeometry>
        </mxCell>
        <mxCell id="GYgUfo7SqgVN0UKton_i-75" value="gesture 2" style="edgeLabel;html=1;align=center;verticalAlign=middle;resizable=0;points=[];" parent="GYgUfo7SqgVN0UKton_i-49" vertex="1" connectable="0">
          <mxGeometry x="-0.3108" y="-2" relative="1" as="geometry">
            <mxPoint as="offset" />
          </mxGeometry>
        </mxCell>
        <mxCell id="GYgUfo7SqgVN0UKton_i-50" value="" style="endArrow=classic;html=1;rounded=0;entryX=0.5;entryY=0;entryDx=0;entryDy=0;exitX=0.5;exitY=1;exitDx=0;exitDy=0;" parent="1" source="GYgUfo7SqgVN0UKton_i-82" target="GYgUfo7SqgVN0UKton_i-30" edge="1">
          <mxGeometry width="50" height="50" relative="1" as="geometry">
            <mxPoint x="400" y="540" as="sourcePoint" />
            <mxPoint x="490" y="430" as="targetPoint" />
          </mxGeometry>
        </mxCell>
        <mxCell id="GYgUfo7SqgVN0UKton_i-76" value="gesture 4" style="edgeLabel;html=1;align=center;verticalAlign=middle;resizable=0;points=[];" parent="GYgUfo7SqgVN0UKton_i-50" vertex="1" connectable="0">
          <mxGeometry x="-0.1508" relative="1" as="geometry">
            <mxPoint as="offset" />
          </mxGeometry>
        </mxCell>
        <mxCell id="GYgUfo7SqgVN0UKton_i-51" value="" style="endArrow=classic;html=1;rounded=0;entryX=0.5;entryY=0;entryDx=0;entryDy=0;exitX=0.5;exitY=1;exitDx=0;exitDy=0;" parent="1" source="GYgUfo7SqgVN0UKton_i-82" target="GYgUfo7SqgVN0UKton_i-45" edge="1">
          <mxGeometry width="50" height="50" relative="1" as="geometry">
            <mxPoint x="400" y="540" as="sourcePoint" />
            <mxPoint x="490" y="430" as="targetPoint" />
          </mxGeometry>
        </mxCell>
        <mxCell id="GYgUfo7SqgVN0UKton_i-77" value="gesture 5" style="edgeLabel;html=1;align=center;verticalAlign=middle;resizable=0;points=[];" parent="GYgUfo7SqgVN0UKton_i-51" vertex="1" connectable="0">
          <mxGeometry x="-0.1707" y="-1" relative="1" as="geometry">
            <mxPoint as="offset" />
          </mxGeometry>
        </mxCell>
        <mxCell id="GYgUfo7SqgVN0UKton_i-69" style="edgeStyle=orthogonalEdgeStyle;rounded=0;orthogonalLoop=1;jettySize=auto;html=1;exitX=0.5;exitY=1;exitDx=0;exitDy=0;entryX=0.5;entryY=0;entryDx=0;entryDy=0;" parent="1" source="GYgUfo7SqgVN0UKton_i-52" target="GYgUfo7SqgVN0UKton_i-68" edge="1">
          <mxGeometry relative="1" as="geometry" />
        </mxCell>
        <mxCell id="GYgUfo7SqgVN0UKton_i-52" value="Vibration Motor&lt;div&gt;soft fuzz 60%&lt;/div&gt;" style="whiteSpace=wrap;html=1;strokeWidth=2;" parent="1" vertex="1">
          <mxGeometry x="190" y="870" width="120" height="60" as="geometry" />
        </mxCell>
        <mxCell id="GYgUfo7SqgVN0UKton_i-70" style="edgeStyle=orthogonalEdgeStyle;rounded=0;orthogonalLoop=1;jettySize=auto;html=1;exitX=0.5;exitY=1;exitDx=0;exitDy=0;" parent="1" source="GYgUfo7SqgVN0UKton_i-62" edge="1">
          <mxGeometry relative="1" as="geometry">
            <mxPoint x="400" y="980" as="targetPoint" />
          </mxGeometry>
        </mxCell>
        <mxCell id="GYgUfo7SqgVN0UKton_i-62" value="Vibration Motor&lt;div&gt;short double click2-80%&lt;/div&gt;" style="whiteSpace=wrap;html=1;strokeWidth=2;" parent="1" vertex="1">
          <mxGeometry x="408.5" y="870" width="133" height="60" as="geometry" />
        </mxCell>
        <mxCell id="GYgUfo7SqgVN0UKton_i-71" style="edgeStyle=orthogonalEdgeStyle;rounded=0;orthogonalLoop=1;jettySize=auto;html=1;exitX=0.5;exitY=1;exitDx=0;exitDy=0;entryX=0.5;entryY=0;entryDx=0;entryDy=0;" parent="1" source="GYgUfo7SqgVN0UKton_i-65" target="GYgUfo7SqgVN0UKton_i-68" edge="1">
          <mxGeometry relative="1" as="geometry" />
        </mxCell>
        <mxCell id="GYgUfo7SqgVN0UKton_i-65" value="Vibration Motor&lt;div&gt;Medium click2-80%&lt;/div&gt;" style="whiteSpace=wrap;html=1;strokeWidth=2;" parent="1" vertex="1">
          <mxGeometry x="565" y="870" width="120" height="60" as="geometry" />
        </mxCell>
        <mxCell id="GYgUfo7SqgVN0UKton_i-68" value="&lt;div&gt;State LED OFF&amp;nbsp;&lt;/div&gt;" style="whiteSpace=wrap;html=1;strokeWidth=2;" parent="1" vertex="1">
          <mxGeometry x="340" y="980" width="120" height="60" as="geometry" />
        </mxCell>
        <mxCell id="GYgUfo7SqgVN0UKton_i-72" style="edgeStyle=orthogonalEdgeStyle;rounded=0;orthogonalLoop=1;jettySize=auto;html=1;exitX=0.5;exitY=1;exitDx=0;exitDy=0;entryX=1;entryY=0.5;entryDx=0;entryDy=0;entryPerimeter=0;" parent="1" source="GYgUfo7SqgVN0UKton_i-68" target="GYgUfo7SqgVN0UKton_i-13" edge="1">
          <mxGeometry relative="1" as="geometry">
            <Array as="points">
              <mxPoint x="400" y="1060" />
              <mxPoint x="810" y="1060" />
              <mxPoint x="810" y="265" />
            </Array>
          </mxGeometry>
        </mxCell>
        <mxCell id="GYgUfo7SqgVN0UKton_i-73" value="wait for next gesture" style="edgeLabel;html=1;align=center;verticalAlign=middle;resizable=0;points=[];" parent="GYgUfo7SqgVN0UKton_i-72" vertex="1" connectable="0">
          <mxGeometry x="-0.6917" y="-3" relative="1" as="geometry">
            <mxPoint as="offset" />
          </mxGeometry>
        </mxCell>
        <mxCell id="GYgUfo7SqgVN0UKton_i-81" value="gesture 1: Wave tilde&lt;div&gt;&lt;div&gt;&lt;span style=&quot;background-color: transparent; color: light-dark(rgb(0, 0, 0), rgb(255, 255, 255));&quot;&gt;gesture 2: Zigzag&lt;/span&gt;&lt;/div&gt;&lt;div&gt;gesture 3: Clockwise circle&lt;/div&gt;&lt;div&gt;gesture 4: Swipe up&lt;/div&gt;&lt;div&gt;gesture 5: Swipe down&lt;/div&gt;&lt;div&gt;gesture 6: Anticlockwise circle&lt;/div&gt;&lt;/div&gt;" style="text;html=1;align=center;verticalAlign=middle;whiteSpace=wrap;rounded=0;fillColor=#f5f5f5;fontColor=#333333;strokeColor=#666666;" parent="1" vertex="1">
          <mxGeometry x="55" y="460" width="175" height="90" as="geometry" />
        </mxCell>
        <mxCell id="GYgUfo7SqgVN0UKton_i-89" style="edgeStyle=orthogonalEdgeStyle;rounded=0;orthogonalLoop=1;jettySize=auto;html=1;exitX=1;exitY=0.5;exitDx=0;exitDy=0;entryX=0;entryY=0.5;entryDx=0;entryDy=0;" parent="1" source="GYgUfo7SqgVN0UKton_i-82" target="GYgUfo7SqgVN0UKton_i-85" edge="1">
          <mxGeometry relative="1" as="geometry" />
        </mxCell>
        <mxCell id="GYgUfo7SqgVN0UKton_i-90" value="gesture 6" style="edgeLabel;html=1;align=center;verticalAlign=middle;resizable=0;points=[];" parent="GYgUfo7SqgVN0UKton_i-89" vertex="1" connectable="0">
          <mxGeometry x="-0.0426" y="3" relative="1" as="geometry">
            <mxPoint as="offset" />
          </mxGeometry>
        </mxCell>
        <mxCell id="GYgUfo7SqgVN0UKton_i-82" value="Motor on" style="whiteSpace=wrap;html=1;strokeWidth=2;" parent="1" vertex="1">
          <mxGeometry x="490" y="590" width="120" height="60" as="geometry" />
        </mxCell>
        <mxCell id="GYgUfo7SqgVN0UKton_i-83" value="" style="endArrow=classic;html=1;rounded=0;entryX=0.5;entryY=0;entryDx=0;entryDy=0;" parent="1" target="GYgUfo7SqgVN0UKton_i-82" edge="1">
          <mxGeometry width="50" height="50" relative="1" as="geometry">
            <mxPoint x="400" y="540" as="sourcePoint" />
            <mxPoint x="410" y="570" as="targetPoint" />
          </mxGeometry>
        </mxCell>
        <mxCell id="GYgUfo7SqgVN0UKton_i-84" value="gesture 3" style="edgeLabel;html=1;align=center;verticalAlign=middle;resizable=0;points=[];" parent="GYgUfo7SqgVN0UKton_i-83" vertex="1" connectable="0">
          <mxGeometry x="0.0756" y="-2" relative="1" as="geometry">
            <mxPoint x="-10" y="-9" as="offset" />
          </mxGeometry>
        </mxCell>
        <mxCell id="GYgUfo7SqgVN0UKton_i-85" value="Motor off" style="whiteSpace=wrap;html=1;strokeWidth=2;" parent="1" vertex="1">
          <mxGeometry x="670" y="590" width="120" height="60" as="geometry" />
        </mxCell>
        <mxCell id="6ajZmVq5-ZLFAeQpOAEj-1" value="State LED stay ON" style="rounded=0;whiteSpace=wrap;html=1;strokeWidth=2;" vertex="1" parent="1">
          <mxGeometry x="670" y="450" width="120" height="60" as="geometry" />
        </mxCell>
      </root>
    </mxGraphModel>
  </diagram>
</mxfile>
